<?xml version="1.0" standalone="no"?>
<!DOCTYPE svg PUBLIC "-//W3C//DTD SVG 20010904//EN"
 "http://www.w3.org/TR/2001/REC-SVG-20010904/DTD/svg10.dtd">
<svg version="1.0" xmlns="http://www.w3.org/2000/svg"
 width="300.000000pt" height="300.000000pt" viewBox="0 0 300.000000 300.000000"
 preserveAspectRatio="xMidYMid meet">
<metadata>
Created by potrace 1.11, written by Peter Selinger 2001-2013
</metadata>
<g transform="translate(0.000000,300.000000) scale(0.100000,-0.100000)"
fill="#000000" stroke="none">
<path d="M129 2969 c-24 -17 -57 -49 -72 -70 -60 -83 -57 -5 -57 -1404 l0
-1283 23 -50 c27 -60 60 -100 112 -135 l40 -27 1326 0 1326 0 44 32 c56 40 73
60 101 117 l23 46 3 1275 c2 915 0 1290 -8 1327 -14 64 -68 141 -126 177 l-41
26 -1324 0 -1325 0 -45 -31z m2632 -178 l24 -19 3 -1265 2 -1264 -24 -26 c-24
-26 -30 -27 -123 -27 l-99 0 3 103 c2 109 -5 152 -57 342 -18 66 -38 148 -45
181 -24 126 -3 248 58 340 24 36 32 56 26 71 -7 19 -53 63 -84 80 -21 12 -27
81 -9 114 8 16 37 50 65 76 73 68 79 85 80 210 1 111 -35 232 -109 364 -91
165 -162 323 -162 364 0 7 -4 16 -8 19 -5 3 -7 -66 -5 -152 1 -86 3 -215 4
-285 l1 -128 38 -24 c37 -23 46 -37 55 -85 9 -46 -45 -110 -93 -110 -32 0 -79
26 -92 51 -28 51 -6 123 43 144 l28 12 -1 269 c-1 148 -1 284 -1 302 1 17 0
32 -3 32 -3 0 -17 -39 -31 -87 -15 -49 -69 -169 -120 -268 -51 -99 -102 -209
-114 -245 -56 -164 -30 -292 87 -420 24 -26 28 -38 27 -89 -1 -66 -12 -86 -54
-94 -53 -11 -57 -78 -13 -177 61 -135 66 -280 16 -445 -67 -223 -76 -268 -77
-368 l-1 -97 -108 0 -108 0 0 173 c0 94 -3 363 -5 595 l-5 424 -40 188 c-22
103 -43 198 -45 211 -3 13 -7 33 -10 44 -2 11 -10 52 -18 90 -17 78 -56 262
-62 285 -2 8 -11 49 -20 90 -17 79 -24 109 -29 125 -2 6 -7 29 -11 53 -4 23
-11 42 -15 42 -4 0 -13 -28 -20 -62 -7 -35 -14 -67 -16 -73 -30 -125 -53 -226
-57 -250 -3 -16 -10 -50 -15 -75 -11 -47 -14 -59 -31 -150 -6 -30 -14 -66 -17
-80 -13 -65 -36 -178 -39 -200 -2 -14 -22 -110 -43 -215 l-40 -190 0 -490 c0
-269 -1 -500 -1 -512 -1 -23 -4 -23 -118 -23 l-118 0 2 107 c1 110 -11 187
-47 301 -18 58 -18 66 -4 88 16 23 16 32 -2 142 -6 36 -3 48 16 74 25 34 25
33 -15 203 -15 61 -37 160 -50 220 l-23 110 52 47 c29 25 66 73 83 105 26 48
31 67 27 108 -10 130 -54 259 -164 488 -37 80 -82 182 -98 228 -31 89 -31 89
-33 117 0 9 -9 -12 -19 -48 -26 -96 -49 -149 -154 -354 -126 -245 -155 -344
-134 -458 13 -71 38 -116 103 -186 30 -32 52 -61 50 -64 -3 -3 -10 -29 -15
-59 -6 -30 -12 -65 -15 -79 -65 -325 -66 -339 -49 -372 13 -25 15 -45 9 -92
-12 -111 -12 -131 2 -159 12 -25 12 -32 0 -50 -38 -59 -51 -130 -52 -274 l0
-143 -106 0 c-90 0 -110 3 -130 19 l-24 19 -3 1266 -2 1267 24 24 25 25 1239
0 c1206 0 1240 -1 1263 -19z m-1210 -771 l56 0 17 -82 c16 -78 19 -95 31 -158
6 -33 23 -118 30 -150 10 -50 37 -186 41 -215 3 -16 9 -46 15 -65 14 -54 11
-88 -8 -98 -21 -11 -53 -1 -72 21 -11 15 -17 14 -51 -9 -59 -39 -111 -42 -159
-11 -57 38 -82 42 -109 17 -42 -39 -50 -22 -36 69 16 102 90 475 110 556 36
142 34 137 57 131 12 -3 47 -6 78 -6z m-642 -814 c28 -115 48 -212 45 -215 -3
-3 -97 -6 -208 -7 -181 -1 -203 1 -200 15 2 9 8 39 13 66 6 28 13 64 16 80 2
17 14 75 26 130 11 55 21 108 22 118 1 9 4 17 7 18 3 0 49 2 103 4 55 2 102 6
105 9 12 12 20 -14 71 -218z m1479 156 l3 -62 -115 0 -114 0 0 58 c1 31 4 59
8 62 5 3 55 5 112 5 l103 0 3 -63z m-1468 -533 c11 -20 13 -108 4 -133 -5 -14
-31 -16 -181 -16 l-174 0 -13 32 c-8 17 -12 39 -11 47 2 9 4 24 4 34 1 9 9 25
19 35 17 17 37 19 181 19 146 0 163 -1 171 -18z"/>
<path d="M2291 2484 c0 -11 3 -14 6 -6 3 7 2 16 -1 19 -3 4 -6 -2 -5 -13z"/>
</g>
</svg>
